<?xml version="1.0" standalone="no"?><svg xmlns:xlink="http://www.w3.org/1999/xlink" xmlns="http://www.w3.org/2000/svg" viewBox="0 0 1000 1428.5801874934853" preserveAspectRatio="xMaxYMax slice"><g transform="scale(2.0437484799620678)"><rect x="0" y="0" width="489.30000000000007" height="699" fill="#7D9F7D"/><rect x="0" y="0" width="69.9" height="69.9" fill="#a7782f"/><rect x="0" y="0" width="69.9" height="69.9" fill="#7b9d7b"/><rect x="69.9" y="0" width="69.9" height="69.9" fill="#819b76"/><polygon points="69.9,0 139.8,69.9 69.9,69.9" fill="#627c60"/><rect x="139.8" y="0" width="69.9" height="69.9" fill="#708f6f"/><rect x="139.8" y="0" width="69.9" height="69.9" fill="#313d2c"/><rect x="209.7" y="0" width="69.9" height="69.9" fill="#958951"/><rect x="209.7" y="0" width="69.9" height="69.9" fill="#899467"/><rect x="279.6" y="0" width="69.9" height="69.9" fill="#ae7021"/><polygon points="349.5,0 349.5,69.9 279.6,69.9" fill="#b9660c"/><rect x="349.5" y="0" width="69.9" height="69.9" fill="#8a9264"/><polygon points="349.5,0 419.4,0 419.4,69.9" fill="#2a3425"/><rect x="419.4" y="0" width="69.9" height="69.9" fill="#7e9e7a"/><polygon points="419.4,0 489.29999999999995,0 489.29999999999995,69.9" fill="#5e785d"/><rect x="0" y="69.9" width="69.9" height="69.9" fill="#2d3828"/><polygon points="0,69.9 69.9,69.9 0,139.8" fill="#455742"/><rect x="69.9" y="69.9" width="69.9" height="69.9" fill="#617b60"/><polygon points="139.8,69.9 139.8,139.8 69.9,139.8" fill="#526850"/><rect x="139.8" y="69.9" width="69.9" height="69.9" fill="#52684f"/><path d="M 139.8 69.9 A 69.9 69.9 0 0 1  209.70000000000002 139.8 L 139.8 69.9 A 69.9 69.9 0 0 0 209.70000000000002 139.8" fill="#2d3828"/><rect x="209.7" y="69.9" width="69.9" height="69.9" fill="#a27c38"/><polygon points="209.7,69.9 279.6,69.9 209.7,139.8" fill="#839972"/><rect x="279.6" y="69.9" width="69.9" height="69.9" fill="#a57933"/><path d="M 279.6 139.8 A 69.9 69.9 0 0 0 349.5 69.9 L 279.6 69.9" fill="#bf6102"/><rect x="349.5" y="69.9" width="69.9" height="69.9" fill="#ad7224"/><path d="M 349.5 69.9 A 69.9 69.9 0 0 1  419.4 139.8 L 349.5 69.9 A 69.9 69.9 0 0 0 419.4 139.8" fill="#a7772e"/><rect x="419.4" y="69.9" width="69.9" height="69.9" fill="#2c3728"/><rect x="419.4" y="69.9" width="69.9" height="69.9" fill="#bb650a"/><rect x="0" y="139.8" width="69.9" height="69.9" fill="#a8772d"/><polygon points="0,139.8 69.9,209.70000000000002 0,209.70000000000002" fill="#7d9f7d"/><rect x="69.9" y="139.8" width="69.9" height="69.9" fill="#839a72"/><path d="M 69.9 139.8 A 69.9 69.9 0 0 0 139.8 209.70000000000002 L 139.8 139.8" fill="#bd6305"/><rect x="139.8" y="139.8" width="69.9" height="69.9" fill="#9c8244"/><path d="M 139.8 139.8 A 69.9 69.9 0 0 0 209.70000000000002 209.70000000000002 L 209.70000000000002 139.8" fill="#98864b"/><rect x="209.7" y="139.8" width="69.9" height="69.9" fill="#323e2d"/><rect x="209.7" y="139.8" width="69.9" height="69.9" fill="#4a5d47"/><rect x="279.6" y="139.8" width="69.9" height="69.9" fill="#647e62"/><path d="M 279.6 209.70000000000002 A 69.9 69.9 0 0 0 349.5 139.8 L 279.6 139.8" fill="#4b5f48"/><rect x="349.5" y="139.8" width="69.9" height="69.9" fill="#b06f1e"/><rect x="349.5" y="139.8" width="69.9" height="69.9" fill="#7d9f7d"/><rect x="419.4" y="139.8" width="69.9" height="69.9" fill="#a07e3c"/><polygon points="419.4,139.8 489.29999999999995,139.8 419.4,209.70000000000002" fill="#af7020"/><rect x="0" y="209.7" width="69.9" height="69.9" fill="#9c8243"/><polygon points="0,209.7 69.9,279.6 0,279.6" fill="#98854a"/><rect x="69.9" y="209.7" width="69.9" height="69.9" fill="#958850"/><polygon points="69.9,209.7 139.8,209.7 69.9,279.6" fill="#9f7f3d"/><rect x="139.8" y="209.7" width="69.9" height="69.9" fill="#b16e1c"/><rect x="139.8" y="209.7" width="69.9" height="69.9" fill="#a07e3c"/><rect x="209.7" y="209.7" width="69.9" height="69.9" fill="#b26d1a"/><path d="M 209.7 279.6 A 69.9 69.9 0 0 1  279.6 209.7 L 209.7 279.6 A 69.9 69.9 0 0 0 279.6 209.7" fill="#597157"/><rect x="279.6" y="209.7" width="69.9" height="69.9" fill="#2d3828"/><path d="M 279.6 279.6 A 69.9 69.9 0 0 1  349.5 209.7 L 349.5 279.6" fill="#779776"/><rect x="349.5" y="209.7" width="69.9" height="69.9" fill="#7d9f7d"/><rect x="349.5" y="209.7" width="69.9" height="69.9" fill="#b9670d"/><rect x="419.4" y="209.7" width="69.9" height="69.9" fill="#303d2c"/><rect x="419.4" y="209.7" width="69.9" height="69.9" fill="#759474"/><rect x="0" y="279.6" width="69.9" height="69.9" fill="#688467"/><rect x="0" y="279.6" width="69.9" height="69.9" fill="#a67830"/><rect x="69.9" y="279.6" width="69.9" height="69.9" fill="#7f9d79"/><path d="M 69.9 349.5 A 69.9 69.9 0 0 1  139.8 279.6 L 69.9 349.5 A 69.9 69.9 0 0 0 139.8 279.6" fill="#b8680f"/><rect x="139.8" y="279.6" width="69.9" height="69.9" fill="#b76811"/><polygon points="139.8,279.6 209.70000000000002,279.6 209.70000000000002,349.5" fill="#b16e1c"/><rect x="209.7" y="279.6" width="69.9" height="69.9" fill="#465843"/><rect x="209.7" y="279.6" width="69.9" height="69.9" fill="#8a9365"/><rect x="279.6" y="279.6" width="69.9" height="69.9" fill="#b46b17"/><path d="M 279.6 279.6 A 69.9 69.9 0 0 1 349.5 349.5 L 279.6 349.5" fill="#354231"/><rect x="349.5" y="279.6" width="69.9" height="69.9" fill="#647f63"/><polygon points="419.4,279.6 419.4,349.5 349.5,349.5" fill="#799a79"/><rect x="419.4" y="279.6" width="69.9" height="69.9" fill="#42533f"/><rect x="419.4" y="279.6" width="69.9" height="69.9" fill="#384734"/><rect x="0" y="349.5" width="69.9" height="69.9" fill="#b26d1a"/><rect x="0" y="349.5" width="69.9" height="69.9" fill="#364432"/><rect x="69.9" y="349.5" width="69.9" height="69.9" fill="#455742"/><polygon points="69.9,349.5 139.8,349.5 139.8,419.4" fill="#928c56"/><rect x="139.8" y="349.5" width="69.9" height="69.9" fill="#97864c"/><polygon points="209.70000000000002,349.5 209.70000000000002,419.4 139.8,419.4" fill="#708e6f"/><rect x="209.7" y="349.5" width="69.9" height="69.9" fill="#bf6101"/><rect x="209.7" y="349.5" width="69.9" height="69.9" fill="#8a9365"/><rect x="279.6" y="349.5" width="69.9" height="69.9" fill="#9f7f3d"/><rect x="279.6" y="349.5" width="69.9" height="69.9" fill="#b76810"/><rect x="349.5" y="349.5" width="69.9" height="69.9" fill="#ad7223"/><polygon points="419.4,349.5 419.4,419.4 349.5,419.4" fill="#bb650a"/><rect x="419.4" y="349.5" width="69.9" height="69.9" fill="#5b7359"/><path d="M 419.4 349.5 A 69.9 69.9 0 0 0 489.29999999999995 419.4 L 489.29999999999995 349.5" fill="#708e6f"/><rect x="0" y="419.4" width="69.9" height="69.9" fill="#495c46"/><polygon points="69.9,419.4 69.9,489.29999999999995 0,489.29999999999995" fill="#b66913"/><rect x="69.9" y="419.4" width="69.9" height="69.9" fill="#84986f"/><polygon points="69.9,419.4 139.8,419.4 69.9,489.29999999999995" fill="#3b4a37"/><rect x="139.8" y="419.4" width="69.9" height="69.9" fill="#465842"/><rect x="139.8" y="419.4" width="69.9" height="69.9" fill="#7f9d79"/><rect x="209.7" y="419.4" width="69.9" height="69.9" fill="#586f55"/><rect x="209.7" y="419.4" width="69.9" height="69.9" fill="#566d54"/><rect x="279.6" y="419.4" width="69.9" height="69.9" fill="#3b4a37"/><polygon points="279.6,419.4 349.5,419.4 349.5,489.29999999999995" fill="#678366"/><rect x="349.5" y="419.4" width="69.9" height="69.9" fill="#2c3728"/><rect x="349.5" y="419.4" width="69.9" height="69.9" fill="#3e4e3a"/><rect x="419.4" y="419.4" width="69.9" height="69.9" fill="#2e3929"/><rect x="419.4" y="419.4" width="69.9" height="69.9" fill="#9e8040"/><rect x="0" y="489.3" width="69.9" height="69.9" fill="#779776"/><rect x="0" y="489.3" width="69.9" height="69.9" fill="#799a79"/><rect x="69.9" y="489.3" width="69.9" height="69.9" fill="#607a5f"/><polygon points="69.9,489.3 139.8,489.3 139.8,559.2" fill="#9e8040"/><rect x="139.8" y="489.3" width="69.9" height="69.9" fill="#b66a13"/><path d="M 139.8 489.3 A 69.9 69.9 0 0 1  209.70000000000002 559.2 L 139.8 489.3 A 69.9 69.9 0 0 0 209.70000000000002 559.2" fill="#849870"/><rect x="209.7" y="489.3" width="69.9" height="69.9" fill="#445641"/><polygon points="209.7,489.3 279.6,489.3 209.7,559.2" fill="#5b7359"/><rect x="279.6" y="489.3" width="69.9" height="69.9" fill="#8c9161"/><rect x="279.6" y="489.3" width="69.9" height="69.9" fill="#495c46"/><rect x="349.5" y="489.3" width="69.9" height="69.9" fill="#4c6049"/><polygon points="349.5,489.3 419.4,489.3 419.4,559.2" fill="#958850"/><rect x="419.4" y="489.3" width="69.9" height="69.9" fill="#9f7f3d"/><polygon points="419.4,489.3 489.29999999999995,559.2 419.4,559.2" fill="#647f63"/><rect x="0" y="559.2" width="69.9" height="69.9" fill="#9e803f"/><rect x="0" y="559.2" width="69.9" height="69.9" fill="#98864b"/><rect x="69.9" y="559.2" width="69.9" height="69.9" fill="#4b5e48"/><rect x="69.9" y="559.2" width="69.9" height="69.9" fill="#9b8244"/><rect x="139.8" y="559.2" width="69.9" height="69.9" fill="#769776"/><polygon points="139.8,559.2 209.70000000000002,559.2 209.70000000000002,629.1" fill="#87966b"/><rect x="209.7" y="559.2" width="69.9" height="69.9" fill="#85976e"/><rect x="209.7" y="559.2" width="69.9" height="69.9" fill="#475a44"/><rect x="279.6" y="559.2" width="69.9" height="69.9" fill="#a57a33"/><polygon points="279.6,559.2 349.5,559.2 349.5,629.1" fill="#9e803f"/><rect x="349.5" y="559.2" width="69.9" height="69.9" fill="#a7782f"/><rect x="349.5" y="559.2" width="69.9" height="69.9" fill="#bf6102"/><rect x="419.4" y="559.2" width="69.9" height="69.9" fill="#85986f"/><polygon points="419.4,559.2 489.29999999999995,629.1 419.4,629.1" fill="#9e8040"/><rect x="0" y="629.1" width="69.9" height="69.9" fill="#6f8d6e"/><polygon points="69.9,629.1 69.9,699 0,699" fill="#546b52"/><rect x="69.9" y="629.1" width="69.9" height="69.9" fill="#556b52"/><polygon points="69.9,629.1 139.8,629.1 69.9,699" fill="#6d8a6c"/><rect x="139.8" y="629.1" width="69.9" height="69.9" fill="#4c6049"/><polygon points="209.70000000000002,629.1 209.70000000000002,699 139.8,699" fill="#9a8448"/><rect x="209.7" y="629.1" width="69.9" height="69.9" fill="#ad7223"/><polygon points="209.7,629.1 279.6,629.1 209.7,699" fill="#7d9f7d"/><rect x="279.6" y="629.1" width="69.9" height="69.9" fill="#a17d3a"/><rect x="279.6" y="629.1" width="69.9" height="69.9" fill="#a17d3a"/><rect x="349.5" y="629.1" width="69.9" height="69.9" fill="#7b9d7b"/><polygon points="419.4,629.1 419.4,699 349.5,699" fill="#bc6408"/><rect x="419.4" y="629.1" width="69.9" height="69.9" fill="#627c60"/><path d="M 419.4 699 A 69.9 69.9 0 0 1  489.29999999999995 629.1 L 489.29999999999995 699" fill="#719070"/></g></svg>