<?xml version="1.0" encoding="utf-8"?>
<!-- Generator: Adobe Illustrator 20.1.0, SVG Export Plug-In . SVG Version: 6.00 Build 0)  -->
<svg version="1.0" xmlns="http://www.w3.org/2000/svg" xmlns:xlink="http://www.w3.org/1999/xlink" x="0px" y="0px"
	 viewBox="0 0 512 512" enable-background="new 0 0 512 512" xml:space="preserve">
<g id="Layer_2" display="none">
	<rect x="0" y="0" display="inline" fill="#FFFFFF" width="512" height="512"/>
</g>
<g id="Layer_3">
	<g>
		<path fill="#424651" d="M344.696,210.01c4.457,2.177,8.892-3,6.043-7.06c-13.456-19.174-30.443-43.364-47.141-67.14
			c0,0-29.652-42.224-42.89-61.085c-1.926-2.744-5.992-2.708-7.884,0.06l-43.153,63.14c-1.652,2.417-0.774,5.736,1.856,7.021
			L344.696,210.01z"/>
		<path fill="#424651" d="M95.446,361.915l122.173,70.535c4.595,2.653,9.469-3.002,6.156-7.146
			c-31.013-38.786-67.96-85.041-83.622-104.823c-1.713-2.164-4.887-2.435-6.949-0.601l-38.548,34.292
			C92.21,356.347,92.611,360.278,95.446,361.915z"/>
		<path fill="#424651" d="M193.143,136.586l37.506-54.876c2.882-4.216-1.94-9.419-6.363-6.865l-107.41,62.015
			c-4.482,2.588-2.275,9.462,2.874,8.934c24.568-2.519,59.825-6.148,69.91-7.139C191.073,138.515,192.342,137.758,193.143,136.586z"
			/>
		<path fill="#424651" d="M83.629,206.464v127.548c0,4.142,4.895,6.34,7.99,3.586l36.304-32.293c1.49-1.325,2.005-3.433,1.295-5.296
			l-36.304-95.255C91.017,199.775,83.629,201.135,83.629,206.464z"/>
		<path fill="#424651" d="M281.775,427.701l-1.455,2.532c-2.445,4.253,2.313,9.002,6.561,6.549l133.616-77.146
			c2.07-1.195,2.945-3.732,2.053-5.949l-36.721-91.244c-1.495-3.714-6.603-4.089-8.603-0.62
			C345.845,316.246,306.195,385.221,281.775,427.701z"/>
		<path fill="#424651" d="M158.451,292.768l192.633-54.285c4.242-1.196,4.765-6.998,0.805-8.933l-147.136-71.888
			c-2.567-1.254-5.654-0.003-6.623,2.684L152.634,286.52C151.309,290.194,154.692,293.828,158.451,292.768z"/>
		<path fill="#424651" d="M386.514,217.005c14.852-25.472,27.743-46.981,35.125-59.211c1.389-2.301,0.608-5.276-1.72-6.62
			L290.833,76.643c-4.451-2.57-9.291,2.695-6.338,6.902c13.552,19.302,30.888,43.989,30.888,43.989
			c24.356,34.682,49.319,70.228,63.058,89.831C380.45,220.232,384.751,220.03,386.514,217.005z"/>
		<path fill="#424651" d="M177.689,154.316c-18.129,1.854-60.283,6.202-79.037,8.098c-3.143,0.318-5.126,3.522-4.002,6.474
			c9.918,26.032,30.055,78.86,39.12,102.64c1.586,4.16,7.485,4.094,8.996-0.095l39.922-110.714
			C183.888,157.394,181.206,153.956,177.689,154.316z"/>
		<path fill="#424651" d="M392.166,239.624l26.952,66.965c1.971,4.897,9.253,3.487,9.253-1.792V191.932
			c0-4.878-6.424-6.659-8.918-2.467c-7.648,12.855-17.032,28.764-26.983,45.95C391.729,236.694,391.614,238.253,392.166,239.624z"/>
		<path fill="#424651" d="M154.717,315.675c20.722,26.113,66.387,83.241,97.263,121.841c2.113,2.642,6.213,2.313,7.899-0.62
			l8.142-14.164c22.187-38.598,61.86-107.621,94.312-163.913c2.15-3.73-1.324-8.172-5.468-7.004l-199.68,56.269
			C153.886,309.013,152.587,312.99,154.717,315.675z"/>
	</g>
</g>
</svg>
